#!OML:ASF X:\für Bonn\!DataBase\2005_08_12_Daniel\c3d\Daniel.ASF
:FULLY-SPECIFIED
:DEGREES
125
root 7.62455 16.2913 -1.25667 -776.659 -87.139 763.397
lowerback 12.3059 -10.9349 -1.78873
upperback 2.45338 -14.8969 -1.18107
thorax -4.00516 -7.40605 2.00903
lowerneck 4.34488 10.8998 2.3541
upperneck 8.00342 14.9125 -10.6776
head 2.99846 7.12063 -3.67753
rclavicle 4.87395e-014 -9.54166e-015
rhumerus -39.7818 -1.69108 -93.1886
rradius 49.815
rwrist 8.22723
rhand -33.0078 18.0767
rfingers 7.12502
rthumb -6.22177 -11.8119
lclavicle 4.87395e-014 -9.54166e-015
lhumerus -51.712 15.0627 73.392
lradius 121.165
lwrist 197.717
lhand -9.27711 18.1805
lfingers 7.12502
lthumb 16.6797 47.4839
rfemur -25.5498 5.42251 19.3737
rtibia 50.47
rfoot -11.3481 1.77193
rtoes -8.77323
lfemur -21.525 2.9705 -13.0382
ltibia 107.582
lfoot 11.0968 -10.9243
ltoes -18.3338
126
root 7.53973 16.3297 -1.27643 -791.942 -87.2919 777.937
lowerback 12.9888 -10.3646 -1.82369
upperback 2.70301 -14.1846 -1.55507
thorax -4.22076 -7.05329 1.6648
lowerneck 4.46843 10.5958 2.03756
upperneck 8.27283 14.4831 -10.4466
head 2.98376 6.89081 -3.56366
rclavicle 8.86952e-014 4.77083e-015
rhumerus -38.68 -0.570604 -94.3043
rradius 50.6342
rwrist 8.72641
rhand -33.3219 18.6419
rfingers 7.12502
rthumb -6.52497 -11.2375
lclavicle 8.86952e-014 4.77083e-015
lhumerus -52.378 15.0056 72.6923
lradius 121.016
lwrist 197.87
lhand -9.10212 17.8406
lfingers 7.12502
lthumb 16.8481 47.1298
rfemur -24.1442 5.76715 19.409
rtibia 49.9884
rfoot -11.4346 2.13224
rtoes -8.5687
lfemur -24.9007 4.67964 -13.0208
ltibia 110.756
lfoot 11.4846 -11.2583
ltoes -19.3196
127
root 7.45708 16.3651 -1.29377 -808.284 -87.2377 793.466
lowerback 13.7425 -9.74731 -1.79353
upperback 2.95549 -13.4106 -1.96905
thorax -4.48817 -6.67119 1.23477
lowerneck 4.68528 10.2506 1.74243
upperneck 8.54011 13.9927 -10.1813
head 2.94836 6.63469 -3.44789
rclavicle -2.15756e-013 2.42517e-014
rhumerus -37.6411 0.544505 -95.223
rradius 51.4713
rwrist 9.14386
rhand -33.5213 19.0602
rfingers 7.12502
rthumb -6.71745 -10.8132
lclavicle -2.15756e-013 2.42517e-014
lhumerus -52.897 14.8511 71.9794
lradius 120.811
lwrist 198.28
lhand -8.93614 17.5242
lfingers 7.12502
lthumb 17.0079 46.7996
rfemur -22.6502 6.12916 19.423
rtibia 49.4611
rfoot -11.4973 2.47111
rtoes -8.50883
lfemur -28.3229 6.4453 -13.0564
ltibia 113.768
lfoot 12.1482 -11.8774
ltoes -19.4714
128
root 7.3759 16.3993 -1.30866 -823.121 -86.9815 807.438
lowerback 14.5153 -9.10688 -1.69643
upperback 3.24237 -12.6044 -2.41485
thorax -4.73857 -6.27793 0.71131
lowerneck 4.84832 9.88253 1.46811
upperneck 8.87329 13.4769 -9.89931
head 2.94693 6.36244 -3.32521
rclavicle 1.98536e-014 1.74931e-014
rhumerus -36.6165 1.63885 -96.0047
rradius 52.3089
rwrist 9.48677
rhand -33.6428 19.309
rfingers 7.12502
rthumb -6.8348 -10.5606
lclavicle 1.98536e-014 1.74931e-014
lhumerus -53.2212 14.6987 71.2689
lradius 120.556
lwrist 198.853
lhand -8.83955 17.2704
lfingers 7.12502
lthumb 17.1009 46.5377
rfemur -21.092 6.46283 19.4209
rtibia 48.9005
rfoot -11.5266 2.82108
rtoes -8.32972
lfemur -31.7919 8.215 -13.141
ltibia 116.577
lfoot 13.0776 -12.8929
ltoes -19.1512
129
root 7.29647 16.4361 -1.32158 -835.407 -86.5579 818.772
lowerback 15.3698 -8.43408 -1.57455
upperback 3.55512 -11.7603 -2.86565
thorax -4.99456 -5.8695 0.148967
lowerneck 5.01455 9.49641 1.14779
upperneck 9.23065 12.9316 -9.55599
head 2.94557 6.0743 -3.17296
rclavicle -1.64743e-014 3.99557e-014
rhumerus -35.6677 2.71961 -96.6288
rradius 53.241
rwrist 9.66035
rhand -33.5356 19.365
rfingers 7.12502
rthumb -6.73125 -10.508
lclavicle -1.64743e-014 3.99557e-014
lhumerus -53.3944 14.5426 70.6121
lradius 120.338
lwrist 199.494
lhand -8.74415 17.0364
lfingers 7.12502
lthumb 17.1927 46.2958
rfemur -19.4166 6.78616 19.4108
rtibia 48.2972
rfoot -11.5613 3.14475
rtoes -8.26097
lfemur -35.2496 9.91733 -13.2886
ltibia 119.149
lfoot 14.1665 -14.3694
ltoes -19.146
130
root 7.21749 16.4731 -1.33252 -844.88 -86.0163 827.218
lowerback 16.3021 -7.74946 -1.42282
upperback 3.87953 -10.9043 -3.31969
thorax -5.26657 -5.45861 -0.452004
lowerneck 5.21023 9.1072 0.839702
upperneck 9.60648 12.3809 -9.22349
head 2.95126 5.78271 -3.02667
rclavicle 7.07798e-014 3.16068e-014
rhumerus -34.8364 3.82443 -97.1111
rradius 54.2606
rwrist 9.66466
rhand -33.1951 19.2829
rfingers 7.12502
rthumb -6.40259 -10.6003
lclavicle 7.07798e-014 3.16068e-014
lhumerus -53.5058 14.3825 69.9409
lradius 120.189
lwrist 200.145
lhand -8.7122 16.8842
lfingers 7.12502
lthumb 17.2235 46.1409
rfemur -17.6411 7.0928 19.3902
rtibia 47.6556
rfoot -11.5843 3.47061
rtoes -8.20481
lfemur -38.7021 11.4963 -13.4774
ltibia 121.464
lfoot 15.3907 -16.1495
ltoes -19.5482
131
root 7.13829 16.506 -1.34092 -851.968 -85.3994 833.145
lowerback 17.3609 -7.06262 -1.25982
upperback 4.23874 -10.0558 -3.78991
thorax -5.55225 -5.05572 -1.09081
lowerneck 5.37377 8.72028 0.562262
upperneck 10.0623 11.8369 -8.86441
head 2.99501 5.49153 -2.87302
rclavicle -1.28705e-014 2.52457e-014
rhumerus -34.1576 5.01982 -97.5031
rradius 55.4335
rwrist 9.39058
rhand -32.5721 19.036
rfingers 7.12502
rthumb -5.80109 -10.8645
lclavicle -1.28705e-014 2.52457e-014
lhumerus -53.6163 14.1976 69.2643
lradius 120.159
lwrist 200.725
lhand -8.655 16.7404
lfingers 7.12502
lthumb 17.2785 45.9923
rfemur -15.6973 7.37168 19.3498
rtibia 46.9721
rfoot -11.6161 3.80691
rtoes -8.20556
lfemur -42.071 12.9258 -13.7056
ltibia 123.538
lfoot 16.6808 -17.9366
ltoes -19.9178
132
root 7.05789 16.5368 -1.34763 -857.555 -84.7248 837.407
lowerback 18.5822 -6.37018 -1.11883
upperback 4.63538 -9.21662 -4.24715
thorax -5.85458 -4.66161 -1.71961
lowerneck 5.53759 8.36039 0.237691
upperneck 10.5499 11.3234 -8.47241
head 3.05005 5.21241 -2.69859
rclavicle 1.05861e-013 -9.39258e-015
rhumerus -33.6407 6.25768 -97.7811
rradius 56.7494
rwrist 9.00509
rhand -31.7142 18.6551
rfingers 7.12502
rthumb -4.97273 -11.2666
lclavicle 1.05861e-013 -9.39258e-015
lhumerus -53.7037 14.0102 68.5821
lradius 120.224
lwrist 201.245
lhand -8.63585 16.6674
lfingers 7.12502
lthumb 17.2969 45.9177
rfemur -13.5479 7.62085 19.3023
rtibia 46.2495
rfoot -11.6326 4.15477
rtoes -8.4305
lfemur -45.2758 14.2848 -13.9302
ltibia 125.347
lfoot 18.1467 -19.4821
ltoes -19.9901
133
root 6.97503 16.5666 -1.35277 -861.999 -84.0374 840.332
lowerback 19.977 -5.67554 -0.991917
upperback 5.08435 -8.39316 -4.69529
thorax -6.16355 -4.2806 -2.34961
lowerneck 5.72682 7.99784 0.017647
upperneck 11.0872 10.8121 -8.13549
head 3.13373 4.93468 -2.56123
rclavicle 8.89934e-014 1.03368e-014
rhumerus -33.2697 7.53593 -97.9616
rradius 58.188
rwrist 8.44988
rhand -30.6666 18.2516
rfingers 7.12502
rthumb -3.96122 -11.6913
lclavicle 8.89934e-014 1.03368e-014
lhumerus -53.7568 13.8276 67.9177
lradius 120.397
lwrist 201.589
lhand -8.71461 16.5583
lfingers 7.12502
lthumb 17.2211 45.8152
rfemur -11.1458 7.8576 19.2593
rtibia 45.4785
rfoot -11.6916 4.49867
rtoes -8.67829
lfemur -48.2678 15.559 -14.1672
ltibia 126.87
lfoot 19.805 -20.7033
ltoes -19.9241
134
root 6.89028 16.594 -1.35692 -865.722 -83.3414 842.408
lowerback 21.4747 -4.96091 -0.868465
upperback 5.56234 -7.55794 -5.12463
thorax -6.46288 -3.8993 -2.99313
lowerneck 6.01133 7.62744 -0.139434
upperneck 11.623 10.2841 -7.79491
head 3.20668 4.65322 -2.43712
rclavicle 1.03306e-014 -1.5704e-014
rhumerus -33.0508 8.86248 -98.0503
rradius 59.7431
rwrist 7.81867
rhand -29.6396 17.7675
rfingers 7.12502
rthumb -2.96937 -12.1915
lclavicle 1.03306e-014 -1.5704e-014
lhumerus -53.7234 13.5975 67.3218
lradius 120.607
lwrist 201.766
lhand -8.80704 16.5378
lfingers 7.12502
lthumb 17.1322 45.8024
rfemur -8.57304 8.09765 19.2212
rtibia 44.6679
rfoot -11.7685 4.8034
rtoes -9.00326
lfemur -51.1311 16.7406 -14.4437
ltibia 128.108
lfoot 21.6911 -21.6622
ltoes -19.9601
135
root 6.80224 16.6201 -1.36046 -868.556 -82.6141 843.5
lowerback 23.0182 -4.21644 -0.73728
upperback 6.07183 -6.69876 -5.56972
thorax -6.7217 -3.51318 -3.70492
lowerneck 6.31599 7.23954 -0.243832
upperneck 12.2133 9.72986 -7.41304
head 3.29786 4.3604 -2.30833
rclavicle -3.61788e-014 -5.28767e-014
rhumerus -32.99 10.0693 -98.0535
rradius 61.4104
rwrist 7.14168
rhand -28.7334 17.3298
rfingers 7.12502
rthumb -2.09421 -12.6397
lclavicle -3.61788e-014 -5.28767e-014
lhumerus -53.5342 13.2364 66.7561
lradius 120.803
lwrist 201.848
lhand -8.94065 16.5432
lfingers 7.12502
lthumb 17.0036 45.819
rfemur -5.86405 8.31459 19.1204
rtibia 43.8171
rfoot -11.8471 5.05648
rtoes -9.29626
lfemur -53.8757 17.7463 -14.8142
ltibia 129.043
lfoot 23.8708 -22.2007
ltoes -19.9733
